<?xml version="1.0" encoding="utf-8"?>
<!-- Generator: Adobe Illustrator 16.2.0, SVG Export Plug-In . SVG Version: 6.00 Build 0)  -->
<!DOCTYPE svg PUBLIC "-//W3C//DTD SVG 1.1//EN" "http://www.w3.org/Graphics/SVG/1.1/DTD/svg11.dtd">
<svg version="1.1" id="Layer_1" xmlns="http://www.w3.org/2000/svg" xmlns:xlink="http://www.w3.org/1999/xlink" x="0px" y="0px"
	 width="122.927px" height="125px" viewBox="0 0 122.927 125" enable-background="new 0 0 122.927 125" xml:space="preserve">
<g>
	<path fill="none" stroke="#8E9092" stroke-width="4.252" stroke-miterlimit="22.9256" d="M13.553,6.126h96.323
		c4.634,0,8.426,3.792,8.426,8.426v96.323c0,4.635-3.792,8.426-8.426,8.426H13.553c-4.635,0-8.427-3.791-8.427-8.426V14.552
		C5.126,9.918,8.918,6.126,13.553,6.126L13.553,6.126z"/>
</g>
<g>
	<path fill="#666766" d="M63.141,19.42h3.56c8.011,0.61,15.99,3.043,22.603,7.687c6.187,4.15,11.131,10.028,14.435,16.686
		c2.745,5.542,3.999,11.68,4.477,17.812v2.251c-0.558,14.354-8.44,28.361-20.87,35.715c-6.167,3.957-13.44,5.75-20.669,6.437H63.17
		c-6.629-0.593-13.251-2.203-19.098-5.455c-7.844-4.297-14.318-11.115-18.096-19.235c3.255,0.007,6.545-0.205,9.774,0.337
		c1.985,1.53,3.149,3.871,4.961,5.593c6.67,6.521,16.105,10.525,25.501,9.778c5.843-0.052,11.622-1.835,16.6-4.871
		c8.87-5.417,15.101-14.986,16.345-25.319c0.267-5.102,0.177-10.393-1.654-15.235c-3.656-11.064-13.366-19.806-24.696-22.452
		c-10.785-2.514-22.766,0.417-30.924,7.963c-2.432,1.956-3.936,4.817-6.27,6.84c-3.21,0.311-6.439,0.18-9.656,0.154
		c3.697-7.912,9.947-14.53,17.484-18.901C49.477,21.858,56.259,19.898,63.141,19.42 M56.141,34.474
		c0.975,0.65,1.921,1.359,2.716,2.229c8.005,8.508,15.707,17.298,23.83,25.694c-0.692,1.132-1.517,2.177-2.434,3.136
		c-5.577,6.077-11.202,12.109-16.75,18.216c-2.334,2.495-4.55,5.134-7.26,7.241c-1.146-5.275-0.356-10.753-0.674-16.099
		c0.257-0.671-0.042-2.065-0.946-2.143c-13.122-0.615-26.322,0.699-39.409-0.639V53.395c1.953-0.635,4.06-0.51,6.083-0.638
		c9.627-0.08,19.254,0.083,28.881,0.064c1.706-0.071,3.45-0.013,5.134-0.369C56.176,46.529,55.137,40.416,56.141,34.474
		L56.141,34.474z"/>
</g>
</svg>
