<?xml version="1.0" encoding="utf-8"?>
<!-- Generator: Adobe Illustrator 16.2.0, SVG Export Plug-In . SVG Version: 6.00 Build 0)  -->
<!DOCTYPE svg PUBLIC "-//W3C//DTD SVG 1.1//EN" "http://www.w3.org/Graphics/SVG/1.1/DTD/svg11.dtd">
<svg version="1.1" id="Layer_1" xmlns="http://www.w3.org/2000/svg" xmlns:xlink="http://www.w3.org/1999/xlink" x="0px" y="0px"
	 width="122.927px" height="125px" viewBox="0 0 122.927 125" enable-background="new 0 0 122.927 125" xml:space="preserve">
<g>
	<path fill="none" stroke="#8E9092" stroke-width="4.252" stroke-miterlimit="22.9256" d="M13.553,6.126h96.323
		c4.634,0,8.426,3.792,8.426,8.426v96.323c0,4.635-3.792,8.426-8.426,8.426H13.553c-4.635,0-8.427-3.791-8.427-8.426V14.552
		C5.126,9.918,8.918,6.126,13.553,6.126L13.553,6.126z"/>
</g>
<g>
	<path fill="#636463" d="M16.125,19.12c2.759-1.919,6.48-0.885,9.604-1.317c4.668,0.51,10.242-1.385,14.246,1.801
		c1.61,3.016,0.927,6.67,1.569,9.928c0.314,4.271,1.895,8.317,2.178,12.589c0.205,1.523-1.05,2.63-1.926,3.68
		c-3.16,3.454-6.634,6.603-9.86,10C39.182,69.115,50.098,80.5,63.68,87.376c3.443-3.464,6.717-7.103,10.31-10.417
		c2.378-2.275,6.088-1.179,8.898-0.515c4.884,1.374,9.984,1.462,14.972,2.161c1.899,0.181,3.078,1.951,3.325,3.731
		c0.473,5.96,0.438,11.956,0.112,17.921c-0.226,1.868-1.368,3.865-3.335,4.277c-5.018,0.823-10.062-0.108-15.033-0.798
		c-13.562-2.321-26.604-7.993-37.329-16.645c-17.375-13.5-28.75-34.385-30.705-56.31C14.761,26.928,13.129,22.301,16.125,19.12
		 M58.168,17.725c5.646,0.494,11.349,1.333,16.563,3.665c10.987,4.503,19.846,13.834,23.896,24.982
		c1.884,4.688,2.285,9.783,2.883,14.756c-3.217,0-6.438,0.021-9.655,0.005C91.519,52.25,87.926,43.5,81.509,37.278
		c-6.037-6.331-14.756-9.315-23.336-9.758C58.163,24.251,58.152,20.989,58.168,17.725 M58.168,37.133
		c4.843,0.505,9.743,1.699,13.757,4.581c6.177,4.431,9.923,11.75,10.134,19.341c-3.108,0.093-6.217,0.17-9.32,0.319
		c-0.859-3.387-1.683-7-4.128-9.646c-2.568-3.093-6.665-4.235-10.406-5.162C58.179,43.423,58.163,40.278,58.168,37.133
		L58.168,37.133z"/>
</g>
</svg>
