<?xml version="1.0" encoding="utf-8"?>
<!-- Generator: Adobe Illustrator 16.2.0, SVG Export Plug-In . SVG Version: 6.00 Build 0)  -->
<!DOCTYPE svg PUBLIC "-//W3C//DTD SVG 1.1//EN" "http://www.w3.org/Graphics/SVG/1.1/DTD/svg11.dtd">
<svg version="1.1" id="Layer_1" xmlns="http://www.w3.org/2000/svg" xmlns:xlink="http://www.w3.org/1999/xlink" x="0px" y="0px"
	 width="122.927px" height="125px" viewBox="0 0 122.927 125" enable-background="new 0 0 122.927 125" xml:space="preserve">
<g>
	<path fill="none" stroke="#8E9092" stroke-width="4.252" stroke-miterlimit="22.9256" d="M13.553,6.126h96.323
		c4.634,0,8.426,3.792,8.426,8.426v96.323c0,4.635-3.792,8.426-8.426,8.426H13.553c-4.635,0-8.427-3.791-8.427-8.426V14.552
		C5.126,9.918,8.918,6.126,13.553,6.126L13.553,6.126z"/>
</g>
<g>
	<path fill="#666766" d="M105.485,20.857h3.997v4.885c-0.801,2.949-1.605,5.894-2.172,8.898
		c-4.141,20.124-8.432,40.212-12.545,60.34c-0.701,3.084-1.234,6.248-2.51,9.161h-2.802c-5.312-3.65-10.385-7.639-15.657-11.35
		c-2.853-1.933-5.392-4.431-8.671-5.654c-0.933-0.366-1.801,0.379-2.582,0.773c-4.61,3-8.345,7.161-12.987,10.117
		c-1.251,0.901-3.124,0.212-3.618-1.207c-3.212-8.552-5.372-17.45-8.257-26.109c-0.427-1.678-2.18-2.248-3.61-2.798
		c-4.874-1.717-9.719-3.506-14.569-5.292c-2.044-0.824-4.188-1.486-6.057-2.686V56.77c3.224-1.555,6.551-2.873,9.903-4.12
		c20.439-7.847,40.857-15.733,61.304-23.547C91.574,26.292,98.691,23.969,105.485,20.857 M88.824,38.072
		c-3.654,1.418-6.846,3.726-10.177,5.742c-10.601,6.543-21.225,13.055-31.86,19.542c-1.622,1.088-3.77,2.009-4.168,4.173
		c0.016,2.231,0.77,4.348,1.339,6.479c1.283,4.188,2.264,8.464,3.698,12.604c0.343,0.004,1.02,0.013,1.362,0.017
		c0.913-3.802,0.953-7.763,1.965-11.537c1.096-2.318,3.188-3.98,4.981-5.741c10.082-9.174,19.96-18.566,30.063-27.72
		C87.135,40.595,88.048,39.371,88.824,38.072L88.824,38.072z"/>
</g>
</svg>
