<?xml version="1.0" encoding="utf-8"?>
<!-- Generator: Adobe Illustrator 16.2.0, SVG Export Plug-In . SVG Version: 6.00 Build 0)  -->
<!DOCTYPE svg PUBLIC "-//W3C//DTD SVG 1.1//EN" "http://www.w3.org/Graphics/SVG/1.1/DTD/svg11.dtd">
<svg version="1.1" id="Layer_1" xmlns="http://www.w3.org/2000/svg" xmlns:xlink="http://www.w3.org/1999/xlink" x="0px" y="0px"
	 width="122.927px" height="125px" viewBox="0 0 122.927 125" enable-background="new 0 0 122.927 125" xml:space="preserve">
<g>
	<path fill="none" stroke="#8E9092" stroke-width="4.252" stroke-miterlimit="22.9256" d="M13.553,6.126h96.323
		c4.634,0,8.426,3.792,8.426,8.426v96.323c0,4.635-3.792,8.426-8.426,8.426H13.553c-4.635,0-8.427-3.791-8.427-8.426V14.552
		C5.126,9.918,8.918,6.126,13.553,6.126L13.553,6.126z"/>
</g>
<g>
	<path fill="#666766" d="M57.595,16.5h7.737c6.81,0.679,13.509,2.711,19.422,6.183c6.494,3.874,12.103,9.286,16.05,15.75
		c3.808,6.081,5.897,13.098,6.659,20.2v7.736c-0.679,6.81-2.712,13.509-6.183,19.422c-3.874,6.494-9.287,12.102-15.75,16.05
		c-6.081,3.808-13.098,5.897-20.2,6.659h-7.735c-6.811-0.68-13.51-2.712-19.423-6.183c-6.494-3.874-12.102-9.287-16.05-15.75
		c-3.808-6.081-5.897-13.098-6.659-20.2v-7.734c0.205-1.588,0.44-3.175,0.729-4.75c1.401-7.792,4.965-15.151,10.075-21.186
		c4.476-5.123,9.935-9.475,16.193-12.206C47.223,18.288,52.391,17.052,57.595,16.5 M59.808,35.139
		c-0.418,0.674-0.991,1.416-0.574,2.27c0.343,0.921,1.545,0.842,2.325,0.952c2.693,0.194,5.412,0.519,7.937,1.543
		c3.725,1.507,7.151,3.919,9.547,7.175c2.982,3.885,4.46,8.776,4.663,13.633c0.099,0.956,0.071,1.953,0.392,2.873
		c0.336,0.755,1.389,0.663,2.012,0.935c0.288-0.604,0.791-1.145,0.868-1.831c-0.101-4.689-0.9-9.457-3.042-13.672
		c-1.904-3.854-4.931-7.076-8.435-9.531C70.884,36.449,65.339,34.888,59.808,35.139 M41.056,36.172
		c-0.533,0.109-1.003,0.413-1.475,0.668c-2.301,1.459-4.541,3.114-6.218,5.29c-0.593,0.89-1.037,1.964-0.943,3.053
		c0.4,2.792,1.591,5.371,2.652,7.955c3.891,8.48,9.382,16.233,16.185,22.623C57.83,82.159,65.795,87,74.237,90.519
		c1.475,0.667,3.143,0.945,4.717,0.432c2.809-0.986,4.878-3.287,6.593-5.621c1.072-1.594,2.319-3.608,1.428-5.575
		c-0.315-0.807-1.085-1.321-1.678-1.91c-3.134-2.614-6.345-5.215-10.016-7.042c-1.499-0.834-3.452-0.727-4.774,0.386
		c-1.362,1.217-2.18,2.973-3.705,4.02c-1.503,0.818-3.161,0.013-4.611-0.494c-4.152-1.825-7.729-4.807-10.495-8.38
		c-1.666-2.09-2.877-4.554-3.433-7.172c-0.215-1.243-0.075-2.664,0.863-3.599c1.081-1.026,2.4-1.786,3.393-2.909
		c0.752-0.796,1.282-1.921,0.957-3.035c-0.655-2.557-2.259-4.704-3.765-6.815c-1.62-2.119-3.205-4.333-5.34-5.969
		C43.424,36.12,42.206,35.919,41.056,36.172 M62.78,41.725c-0.973,0.032-1.81,1.031-1.431,2.016c0.156,0.634,0.782,1.004,1.393,1.1
		c2.233,0.413,4.559,0.649,6.618,1.68c2.206,0.986,3.973,2.744,5.403,4.656c1.842,2.561,2.355,5.804,2.462,8.887
		c-0.146,1.161,1.346,2.036,2.317,1.47c0.426-0.246,0.737-0.695,0.783-1.188c0.189-3.998-0.957-8.034-3.227-11.33
		C73.853,44.466,68.297,41.872,62.78,41.725 M64.271,48.599c-0.943,0.326-1.028,1.459-1.245,2.271
		c1.673,1.154,3.885,0.807,5.53,2.013c1.048,0.778,1.659,2.057,1.853,3.328c0.284,1.017,0.151,2.235,0.951,3.042
		c0.578,0.355,1.331,0.241,1.93-0.018c1.128-1.335,0.285-3.153,0.02-4.635C72.225,50.765,68.169,48.254,64.271,48.599L64.271,48.599
		z"/>
</g>
</svg>
